# xmcd
#
# Track frame offsets: 
#        150
#        24268
#        37810
#        56623
#        83415
#        104467
#        123401
#        151817
#        171791
#        189048
#        206954
#        225625
#        255391
#        279403
#        304273
#
# Disc length: 4329 seconds
#
# Revision: 0
# Processed by: cddbd v1.5.2PL0 Copyright (c) Steve Scherf et al.
# Submitted via: ExactAudioCopyFreeDBPlugin 1.0
#
DISCID=b310e70f
DTITLE=Teddy Pendergrass - The Music of Teddy Pendergrass:  The Box Se
DTITLE=t Series
DYEAR=2010
DGENRE=Soul
TTITLE0=You're My Latest, My Greatest Inspiration
TTITLE1=I Can't Live Without Your Love
TTITLE2=Nine Times Out of Ten
TTITLE3=It's Time for Love
TTITLE4=I Can't Leave Your Love Alone
TTITLE5=I Can't Win for Losing
TTITLE6=This One's for You
TTITLE7=This Gift of Life
TTITLE8=Crazy About Your Love
TTITLE9=I Want My Baby Back
TTITLE10=Heaven Only Knows
TTITLE11=It Should've Been You
TTITLE12=Hold Me (duet with Whitney Houston)
TTITLE13=Make it with You
TTITLE14=Cold, Cold World
EXTD=
EXTT0=
EXTT1=
EXTT2=
EXTT3=
EXTT4=
EXTT5=
EXTT6=
EXTT7=
EXTT8=
EXTT9=
EXTT10=
EXTT11=
EXTT12=
EXTT13=
EXTT14=
PLAYORDER=
